:SAMPLES-PER-SECOND 30
:FULLY-SPECIFIED
:DEGREES
297
root  -4.15833 34.62 -6.21002 6.16456 -46.6385 1.73938
RightUpLeg  -9.00841 -10.7997 -5.63822
RightLeg  9.62956 -1.25913 -0.130023
RightFoot  5.15098 0.0151295 0.0797823
RightToes  -29.8949 -0.136325 -0.244143
Spine  -0.494816 1.97161 -0.301119
Spine1  -1.0574 4.14878 0.0878036
HEad  -54.9881 -7.89907 4.35744
LeftShoulder1  -1.94126e-019 -3.10601e-018 -2.51263e-017
LeftArm  -8.30329 20.2396 -82.3651
LeftForeArm  30.4878 -15.2143 -2.48887
LeftHand  -0.435912 -0.859983 8.22593
RightShoulder  -4.96962e-017 0 -2.36833e-017
RightArm  -3.30479 3.60978 84.9007
RightForeArm  48.8991 67.1774 21.6287
RightHand  0.405406 -7.94014 -19.0598
LeftUpLeg  -12.7056 3.04912 -2.81201
LeftLeg  10.1217 14.3739 1.60366
LeftFoot  5.22413 -0.0601124 1.53486
LeftToes  -16.9229 1.34695e-006 1.12385e-007
298
root  -4.17918 34.6295 -6.30216 6.30501 -46.3053 1.59709
RightUpLeg  -8.95066 -10.6966 -5.38225
RightLeg  9.43387 -1.69947 -0.16995
RightFoot  5.23593 0.0178461 0.040168
RightToes  -29.5798 -0.136533 -0.244364
Spine  -0.464217 2.07126 -0.294053
Spine1  -0.996661 4.35424 0.0958964
HEad  -53.1176 -9.01148 4.89044
LeftShoulder1  -1.94126e-019 -3.10601e-018 -2.51263e-017
LeftArm  -7.50055 19.6358 -82.3798
LeftForeArm  30.8031 -15.5912 -2.56377
LeftHand  -0.443697 -0.948423 8.26126
RightShoulder  -4.96962e-017 0 -2.36833e-017
RightArm  -2.50294 3.92095 84.5896
RightForeArm  45.5675 64.0231 18.5459
RightHand  0.937984 -10.2211 -22.5846
LeftUpLeg  -12.7668 2.58948 -2.56045
LeftLeg  9.96442 14.4866 1.57618
LeftFoot  5.51699 -0.0658841 1.6222
LeftToes  -17.3319 1.34695e-006 1.12385e-007
299
root  -4.21137 34.6375 -6.40971 6.47832 -46.4918 1.40548
RightUpLeg  -9.09929 -10.8803 -5.06426
RightLeg  9.37973 -1.34072 -0.132585
RightFoot  5.38419 0.0158069 0.0685263
RightToes  -29.5396 -0.136786 -0.244632
Spine  -0.401663 2.35204 -0.312735
Spine1  -0.874612 4.92371 0.0495591
HEad  -51.6907 -10.2504 5.60741
LeftShoulder1  -1.94126e-019 -3.10601e-018 -2.51263e-017
LeftArm  -6.89105 18.7433 -82.4381
LeftForeArm  31.3713 -15.605 -2.58149
LeftHand  -0.425247 -1.1716 7.6711
RightShoulder  -4.96962e-017 0 -2.36833e-017
RightArm  -2.29441 3.07227 84.082
RightForeArm  41.1036 57.1413 13.7612
RightHand  0.815126 -9.71105 -22.0262
LeftUpLeg  -12.8444 2.22634 -2.24493
LeftLeg  9.93085 15.0259 1.62475
LeftFoot  5.73048 -0.0732915 1.73627
LeftToes  -17.4515 1.34695e-006 1.12385e-007
300
root  -4.23739 34.6318 -6.54134 6.66249 -46.7735 1.20707
RightUpLeg  -9.38149 -10.873 -4.71912
RightLeg  9.50638 -1.05593 -0.106575
RightFoot  5.32856 0.0135325 0.100263
RightToes  -28.9987 -0.137087 -0.244947
Spine  -0.263983 2.56283 -0.260551
Spine1  -0.607646 5.37896 0.131384
HEad  -50.642 -10.6827 5.42747
LeftShoulder1  -1.94126e-019 -3.10601e-018 -2.51263e-017
LeftArm  -6.99181 17.9923 -82.7314
LeftForeArm  31.9178 -15.7993 -2.60539
LeftHand  -0.423428 -1.23497 7.57085
RightShoulder  -4.96962e-017 0 -2.36833e-017
RightArm  -2.52041 4.27538 84.6761
RightForeArm  40.5623 44.4842 8.18214
RightHand  0.0182834 -5.54913 -20.5174
LeftUpLeg  -13.1618 1.97185 -1.91813
LeftLeg  10.3186 15.5477 1.78493
LeftFoot  5.76485 -0.0780744 1.80761
LeftToes  -17.0027 1.34695e-006 1.12385e-007
301
root  -4.21682 34.6052 -6.69887 6.79521 -46.6702 1.04151
RightUpLeg  -9.85243 -10.7468 -4.40617
RightLeg  10.0704 -1.29519 -0.143895
RightFoot  5.10295 0.0139049 0.0941951
RightToes  -29.0937 -0.13773 -0.245618
Spine  0.0281713 2.74997 -0.0742549
Spine1  -0.0224122 5.80453 0.474813
HEad  -49.4406 -10.8159 4.27681
LeftShoulder1  -1.94126e-019 -3.10601e-018 -2.51263e-017
LeftArm  -6.56387 17.1511 -83.3603
LeftForeArm  31.8546 -16.6181 -2.71676
LeftHand  -0.428192 -1.13867 7.75959
RightShoulder  -4.96962e-017 0 -2.36833e-017
RightArm  1.53236 6.10385 85.0115
RightForeArm  47.6409 34.342 4.91993
RightHand  0.147545 -5.94273 -30.3634
LeftUpLeg  -13.7955 1.43826 -1.61972
LeftLeg  11.1707 15.9562 2.06807
LeftFoot  5.70177 -0.0810359 1.84548
LeftToes  -16.7883 1.34695e-006 1.12385e-007
302
root  -4.13277 34.5771 -6.8864 6.92271 -45.9685 0.883179
RightUpLeg  -10.5439 -10.6754 -4.10772
RightLeg  11.1017 -1.95392 -0.253345
RightFoot  4.65628 0.0161209 0.0618041
RightToes  -28.1692 -0.133121 -0.240697
Spine  0.529538 3.10598 0.0370159
Spine1  0.988425 6.55429 0.673195
HEad  -48.3084 -11.895 4.21122
LeftShoulder1  -1.94126e-019 -3.10601e-018 -2.51263e-017
LeftArm  -4.98383 15.6824 -83.7608
LeftForeArm  31.5421 -18.3802 -2.96358
LeftHand  -0.420537 -1.33258 7.41868
RightShoulder  -4.96962e-017 0 -2.36833e-017
RightArm  2.592 3.90277 83.0899
RightForeArm  47.9099 40.7303 6.56716
RightHand  0.778568 -7.61425 -38.5884
LeftUpLeg  -14.8006 0.625274 -1.33634
LeftLeg  12.4343 15.9943 2.42745
LeftFoot  5.63919 -0.0820327 1.84441
LeftToes  -16.7173 1.34695e-006 1.12385e-007
303
root  -3.97083 34.5453 -7.14903 7.9805 -44.2758 0.456095
RightUpLeg  -12.0319 -11.0929 -3.43961
RightLeg  12.216 -3.1791 -0.47572
RightFoot  4.41358 0.0212616 -0.0123621
RightToes  -27.6034 -0.127771 -0.234969
Spine  0.912264 3.11917 0.185334
Spine1  1.76257 6.61485 0.935223
HEad  -47.1107 -12.7327 4.27682
LeftShoulder1  -1.94126e-019 -3.10601e-018 -2.51263e-017
LeftArm  -4.17796 14.5877 -84.1761
LeftForeArm  31.1426 -20.6917 -3.21527
LeftHand  -0.41845 -1.53637 7.18119
RightShoulder  -4.96962e-017 0 -2.36833e-017
RightArm  -2.65254 0.893646 81.7167
RightForeArm  51.3999 55.3914 11.8772
RightHand  0.187427 -5.99647 -34.1334
LeftUpLeg  -17.1451 -0.447529 -0.841196
LeftLeg  14.2905 15.2486 2.81825
LeftFoot  5.63826 -0.0796994 1.77996
LeftToes  -16.9373 1.34695e-006 1.12385e-007
304
root  -3.79695 34.4951 -7.43172 8.85417 -42.4844 0.292826
RightUpLeg  -13.6079 -12.0917 -2.91256
RightLeg  13.4223 -3.93145 -0.673328
RightFoot  3.97973 0.022605 -0.0332644
RightToes  -27.2501 -0.125451 -0.232407
Spine  1.38173 2.59362 0.429582
Spine1  2.70584 5.57054 1.3854
HEad  -45.2833 -11.8396 3.31511
LeftShoulder1  -1.94126e-019 -3.10601e-018 -2.51263e-017
LeftArm  -5.02939 14.2491 -84.6659
LeftForeArm  30.3069 -22.9119 -3.41054
LeftHand  -0.4273 -1.64247 7.22735
RightShoulder  -4.96962e-017 0 -2.36833e-017
RightArm  -5.94457 2.15759 81.341
RightForeArm  54.581 63.8353 17.3015
RightHand  -0.208962 -4.54867 -28.1444
LeftUpLeg  -19.3878 -0.603735 -0.635069
LeftLeg  15.6975 13.588 2.8605
LeftFoot  5.78756 -0.0752556 1.65024
LeftToes  -17.3504 1.34695e-006 1.12385e-007
305
root  -3.60819 34.4376 -7.74752 9.80984 -41.2234 0.38706
RightUpLeg  -15.8013 -13.2161 -2.45555
RightLeg  14.9633 -4.02888 -0.802381
RightFoot  3.3896 0.0193448 0.00979124
RightToes  -26.7163 -0.122166 -0.228509
Spine  1.73852 1.97117 0.481981
Spine1  3.39585 4.36048 1.41873
HEad  -43.0789 -9.9025 2.38665
LeftShoulder1  -1.94126e-019 -3.10601e-018 -2.51263e-017
LeftArm  -6.21209 14.428 -84.7174
LeftForeArm  29.6338 -24.8598 -3.72011
LeftHand  -0.467288 -1.47007 8.07289
RightShoulder  -4.96962e-017 0 -2.36833e-017
RightArm  -6.70772 5.90247 82.1436
RightForeArm  53.4596 63.1411 16.8087
RightHand  -0.20336 -4.59305 -28.9721
LeftUpLeg  -21.5003 -0.293627 -0.683731
LeftLeg  16.3099 12.022 2.66947
LeftFoot  6.18402 -0.0764087 1.57598
LeftToes  -17.7748 1.34695e-006 1.12385e-007
306
root  -3.43715 34.3883 -8.07562 10.8324 -41.0286 0.388296
RightUpLeg  -18.2269 -13.3967 -1.92943
RightLeg  16.5641 -4.02393 -0.919393
RightFoot  3.0548 0.0165153 0.0451466
RightToes  -26.3255 -0.119454 -0.224913
Spine  2.18145 1.93172 0.393001
Spine1  4.25288 4.34579 1.15565
HEad  -42.5641 -8.8421 2.40359
LeftShoulder1  -1.94126e-019 -3.10601e-018 -2.51263e-017
LeftArm  -5.70146 13.8025 -84.5508
LeftForeArm  28.7345 -25.4319 -3.88011
LeftHand  -0.493282 -1.12969 8.93
RightShoulder  -4.96962e-017 0 -2.36833e-017
RightArm  -7.10309 8.55783 82.673
RightForeArm  49.9641 58.276 13.6091
RightHand  0.213427 -6.18086 -30.6361
LeftUpLeg  -23.1839 0.349212 -0.668645
LeftLeg  16.3503 11.2117 2.50024
LeftFoot  6.62916 -0.0822974 1.58248
LeftToes  -18.4834 1.34695e-006 1.12385e-007
307
root  -3.2743 34.3565 -8.42521 12.564 -41.3744 0.246513
RightUpLeg  -21.099 -13.3557 -1.14251
RightLeg  17.5571 -3.6414 -0.899216
RightFoot  3.04623 0.0143837 0.0692697
RightToes  -25.819 -0.117977 -0.221883
Spine  2.35966 2.30328 0.250862
Spine1  4.59137 5.13409 0.830308
HEad  -43.8725 -8.66981 2.95005
LeftShoulder1  -1.94126e-019 -3.10601e-018 -2.51263e-017
LeftArm  -3.48109 12.6631 -84.2792
LeftForeArm  27.3891 -24.6179 -3.78927
LeftHand  -0.468281 -0.952963 8.70638
RightShoulder  -4.96962e-017 0 -2.36833e-017
RightArm  -9.24855 9.75445 82.5081
RightForeArm  44.2288 51.4595 10.5389
RightHand  0.149605 -6.07492 -25.858
LeftUpLeg  -25.3157 0.674117 -0.434693
LeftLeg  16.1986 11.2149 2.47004
LeftFoot  7.23815 -0.0979216 1.70965
LeftToes  -19.5222 1.34695e-006 1.12385e-007
308
root  -3.15876 34.3394 -8.71769 13.9902 -41.5215 0.0542947
RightUpLeg  -23.0871 -13.7916 -0.320911
RightLeg  17.7402 -3.05048 -0.764078
RightFoot  3.30976 0.0124489 0.0896077
RightToes  -25.8832 -0.116581 -0.219716
Spine  2.56861 2.70638 0.230147
Spine1  5.00143 5.98358 0.745855
HEad  -45.967 -8.32329 2.91919
LeftShoulder1  -1.94126e-019 -3.10601e-018 -2.51263e-017
LeftArm  -2.36076 11.3564 -84.5216
LeftForeArm  27.9037 -22.7364 -3.45828
LeftHand  -0.443533 -1.55296 7.58532
RightShoulder  -4.96962e-017 0 -2.36833e-017
RightArm  -11.2283 12.0226 82.3565
RightForeArm  48.4584 41.334 6.68456
RightHand  -0.693693 -2.31092 -25.8059
LeftUpLeg  -26.8989 0.813772 -0.136898
LeftLeg  15.8212 11.2359 2.39775
LeftFoot  7.88135 -0.11598 1.84507
LeftToes  -20.3102 1.34695e-006 1.12385e-007
